REM DIRINDEX 1\2,1\3
REM DIRNAME cjc039,folder01,folder02
TITLE ""
FILE "1181-1200.mp3" MP3
  TRACK 01 AUDIO
    TITLE "0:"
    INDEX 01 00:00:00
  TRACK 02 AUDIO
    TITLE "2:cjc039_1361"
    INDEX 01 00:00:25
  TRACK 03 AUDIO
    TITLE "0:"
    INDEX 01 00:01:32
  TRACK 04 AUDIO
    TITLE "3:cjc039_1362"
    INDEX 01 00:02:12
  TRACK 05 AUDIO
    TITLE "0:"
    INDEX 01 00:05:30
  TRACK 06 AUDIO
    TITLE "2:cjc039_1363"
    INDEX 01 00:07:05
  TRACK 07 AUDIO
    TITLE "0:"
    INDEX 01 00:08:23
  TRACK 08 AUDIO
    TITLE "3:cjc039_1364"
    INDEX 01 00:09:00
  TRACK 09 AUDIO
    TITLE "0:"
    INDEX 01 00:11:54
  TRACK 10 AUDIO
    TITLE "2:cjc039_1365"
    INDEX 01 00:13:35
  TRACK 11 AUDIO
    TITLE "0:"
    INDEX 01 00:14:41
  TRACK 12 AUDIO
    TITLE "3:cjc039_1366"
    INDEX 01 00:15:17
  TRACK 13 AUDIO
    TITLE "0:"
    INDEX 01 00:17:65
  TRACK 14 AUDIO
    TITLE "2:cjc039_1367"
    INDEX 01 00:19:44
  TRACK 15 AUDIO
    TITLE "0:"
    INDEX 01 00:20:57
  TRACK 16 AUDIO
    TITLE "3:cjc039_1368"
    INDEX 01 00:21:31
  TRACK 17 AUDIO
    TITLE "0:"
    INDEX 01 00:24:53
  TRACK 18 AUDIO
    TITLE "2:cjc039_1369"
    INDEX 01 00:26:28
  TRACK 19 AUDIO
    TITLE "0:"
    INDEX 01 00:27:30
  TRACK 20 AUDIO
    TITLE "3:cjc039_1370"
    INDEX 01 00:28:08
  TRACK 21 AUDIO
    TITLE "0:"
    INDEX 01 00:32:00
  TRACK 22 AUDIO
    TITLE "2:cjc039_1371"
    INDEX 01 00:33:48
  TRACK 23 AUDIO
    TITLE "0:"
    INDEX 01 00:34:69
  TRACK 24 AUDIO
    TITLE "3:cjc039_1372"
    INDEX 01 00:35:51
  TRACK 25 AUDIO
    TITLE "0:"
    INDEX 01 00:39:58
  TRACK 26 AUDIO
    TITLE "2:cjc039_1373"
    INDEX 01 00:41:38
  TRACK 27 AUDIO
    TITLE "0:"
    INDEX 01 00:42:39
  TRACK 28 AUDIO
    TITLE "3:cjc039_1374"
    INDEX 01 00:43:17
  TRACK 29 AUDIO
    TITLE "0:"
    INDEX 01 00:47:72
  TRACK 30 AUDIO
    TITLE "2:cjc039_1375"
    INDEX 01 00:49:49
  TRACK 31 AUDIO
    TITLE "0:"
    INDEX 01 00:50:54
  TRACK 32 AUDIO
    TITLE "3:cjc039_1376"
    INDEX 01 00:51:32
  TRACK 33 AUDIO
    TITLE "0:"
    INDEX 01 00:55:08
  TRACK 34 AUDIO
    TITLE "2:cjc039_1377"
    INDEX 01 00:56:59
  TRACK 35 AUDIO
    TITLE "0:"
    INDEX 01 00:57:45
  TRACK 36 AUDIO
    TITLE "3:cjc039_1378"
    INDEX 01 00:58:22
  TRACK 37 AUDIO
    TITLE "0:"
    INDEX 01 01:00:64
  TRACK 38 AUDIO
    TITLE "2:cjc039_1379"
    INDEX 01 01:02:40
  TRACK 39 AUDIO
    TITLE "0:"
    INDEX 01 01:03:55
  TRACK 40 AUDIO
    TITLE "3:cjc039_1380"
    INDEX 01 01:04:33
  TRACK 41 AUDIO
    TITLE "0:"
    INDEX 01 01:08:17
  TRACK 42 AUDIO
    TITLE "2:cjc039_1381"
    INDEX 01 01:09:69
  TRACK 43 AUDIO
    TITLE "0:"
    INDEX 01 01:10:65
  TRACK 44 AUDIO
    TITLE "3:cjc039_1382"
    INDEX 01 01:11:45
  TRACK 45 AUDIO
    TITLE "0:"
    INDEX 01 01:15:03
  TRACK 46 AUDIO
    TITLE "2:cjc039_1383"
    INDEX 01 01:16:48
  TRACK 47 AUDIO
    TITLE "0:"
    INDEX 01 01:17:53
  TRACK 48 AUDIO
    TITLE "3:cjc039_1384"
    INDEX 01 01:18:37
  TRACK 49 AUDIO
    TITLE "0:"
    INDEX 01 01:22:11
  TRACK 50 AUDIO
    TITLE "2:cjc039_1385"
    INDEX 01 01:23:67
  TRACK 51 AUDIO
    TITLE "0:"
    INDEX 01 01:25:00
  TRACK 52 AUDIO
    TITLE "3:cjc039_1386"
    INDEX 01 01:25:53
  TRACK 53 AUDIO
    TITLE "0:"
    INDEX 01 01:28:74
  TRACK 54 AUDIO
    TITLE "2:cjc039_1387"
    INDEX 01 01:30:50
  TRACK 55 AUDIO
    TITLE "0:"
    INDEX 01 01:32:04
  TRACK 56 AUDIO
    TITLE "3:cjc039_1388"
    INDEX 01 01:32:59
  TRACK 57 AUDIO
    TITLE "0:"
    INDEX 01 01:37:07
  TRACK 58 AUDIO
    TITLE "2:cjc039_1389"
    INDEX 01 01:38:61
  TRACK 59 AUDIO
    TITLE "0:"
    INDEX 01 01:39:64
  TRACK 60 AUDIO
    TITLE "3:cjc039_1390"
    INDEX 01 01:40:42
  TRACK 61 AUDIO
    TITLE "0:"
    INDEX 01 01:44:15
  TRACK 62 AUDIO
    TITLE "2:cjc039_1391"
    INDEX 01 01:45:69
  TRACK 63 AUDIO
    TITLE "0:"
    INDEX 01 01:47:25
  TRACK 64 AUDIO
    TITLE "3:cjc039_1392"
    INDEX 01 01:48:03
  TRACK 65 AUDIO
    TITLE "0:"
    INDEX 01 01:51:74
  TRACK 66 AUDIO
    TITLE "2:cjc039_1393"
    INDEX 01 01:53:49
  TRACK 67 AUDIO
    TITLE "0:"
    INDEX 01 01:54:54
  TRACK 68 AUDIO
    TITLE "3:cjc039_1394"
    INDEX 01 01:55:32
  TRACK 69 AUDIO
    TITLE "0:"
    INDEX 01 01:58:70
  TRACK 70 AUDIO
    TITLE "2:cjc039_1395"
    INDEX 01 02:00:49
  TRACK 71 AUDIO
    TITLE "0:"
    INDEX 01 02:02:09
  TRACK 72 AUDIO
    TITLE "3:cjc039_1396"
    INDEX 01 02:02:66
  TRACK 73 AUDIO
    TITLE "0:"
    INDEX 01 02:06:59
  TRACK 74 AUDIO
    TITLE "2:cjc039_1397"
    INDEX 01 02:08:37
  TRACK 75 AUDIO
    TITLE "0:"
    INDEX 01 02:09:38
  TRACK 76 AUDIO
    TITLE "3:cjc039_1398"
    INDEX 01 02:10:20
  TRACK 77 AUDIO
    TITLE "0:"
    INDEX 01 02:13:48
  TRACK 78 AUDIO
    TITLE "2:cjc039_1399"
    INDEX 01 02:15:25
  TRACK 79 AUDIO
    TITLE "0:"
    INDEX 01 02:16:42
  TRACK 80 AUDIO
    TITLE "3:cjc039_1400"
    INDEX 01 02:17:22
  TRACK 81 AUDIO
    TITLE "0:"
    INDEX 01 02:21:67
